rotated_Sprint_05400001_forces_filt10Hz.mot
version=1
nRows=43
nColumns=19
inDegrees=yes
endheader
time	R_ground_force_vx	R_ground_force_vy	R_ground_force_vz	R_ground_force_px	R_ground_force_py	R_ground_force_pz	R_ground_torque_x	R_ground_torque_y	R_ground_torque_z	L_ground_force_vx	L_ground_force_vy	L_ground_force_vz	L_ground_force_px	L_ground_force_py	L_ground_force_pz	L_ground_torque_x	L_ground_torque_y	L_ground_torque_z	
1.809500	-326.271788	1783.069986	-37.538353	  0.965860	  0.000000	 -0.251440	  0.000000	 11.404792	  0.000000	  0.000000	  0.000000	  0.000000	  0.273508	  0.000000	 -0.468599	  0.000000	  0.000000	  0.000000
1.810000	-329.610406	1800.231705	-35.469451	  0.964595	  0.000000	 -0.251498	  0.000000	 11.319669	  0.000000	  0.000000	  0.000000	  0.000000	  0.275190	  0.000000	 -0.468373	  0.000000	  0.000000	  0.000000
1.810500	-332.887164	1817.236442	-33.407169	  0.963320	  0.000000	 -0.251554	  0.000000	 11.216038	  0.000000	  0.000000	  0.000000	  0.000000	  0.276907	  0.000000	 -0.467974	  0.000000	  0.000000	  0.000000
1.811000	-336.096771	1834.085550	-31.355984	  0.962032	  0.000000	 -0.251609	  0.000000	 11.094782	  0.000000	  0.000000	  0.000000	  0.000000	  0.278625	  0.000000	 -0.467574	  0.000000	  0.000000	  0.000000
1.811500	-339.234003	1850.780427	-29.320340	  0.960733	  0.000000	 -0.251662	  0.000000	 10.956866	  0.000000	  0.000000	  0.000000	  0.000000	  0.280343	  0.000000	 -0.467174	  0.000000	  0.000000	  0.000000
1.812000	-342.293732	1867.322484	-27.304636	  0.959421	  0.000000	 -0.251714	  0.000000	 10.803329	  0.000000	  0.000000	  0.000000	  0.000000	  0.282060	  0.000000	 -0.466775	  0.000000	  0.000000	  0.000000
1.812500	-345.270958	1883.713107	-25.313217	  0.958098	  0.000000	 -0.251764	  0.000000	 10.635275	  0.000000	  0.000000	  0.000000	  0.000000	  0.283778	  0.000000	 -0.466375	  0.000000	  0.000000	  0.000000
1.813000	-348.160834	1899.953635	-23.350357	  0.956762	  0.000000	 -0.251813	  0.000000	 10.453864	  0.000000	  0.000000	  0.000000	  0.000000	  0.285495	  0.000000	 -0.465976	  0.000000	  0.000000	  0.000000
1.813500	-350.958698	1916.045329	-21.420244	  0.955414	  0.000000	 -0.251861	  0.000000	 10.260302	  0.000000	  0.000000	  0.000000	  0.000000	  0.287212	  0.000000	 -0.465577	  0.000000	  0.000000	  0.000000
1.814000	-353.660087	1931.989357	-19.526964	  0.954052	  0.000000	 -0.251908	  0.000000	 10.055824	  0.000000	  0.000000	  0.000000	  0.000000	  0.288930	  0.000000	 -0.465177	  0.000000	  0.000000	  0.000000
1.814500	-356.260759	1947.786773	-17.674483	  0.952678	  0.000000	 -0.251954	  0.000000	  9.841689	  0.000000	  0.000000	  0.000000	  0.000000	  0.290648	  0.000000	 -0.464777	  0.000000	  0.000000	  0.000000
1.815000	-358.756696	1963.438504	-15.866642	  0.951290	  0.000000	 -0.252000	  0.000000	  9.619168	  0.000000	  0.000000	  0.000000	  0.000000	  0.292365	  0.000000	 -0.464378	  0.000000	  0.000000	  0.000000
1.815500	-361.144115	1978.945330	-14.107141	  0.949888	  0.000000	 -0.252045	  0.000000	  9.389536	  0.000000	  0.000000	  0.000000	  0.000000	  0.294112	  0.000000	 -0.463806	  0.000000	  0.000000	  0.000000
1.816000	-363.419466	1994.307870	-12.399544	  0.948473	  0.000000	 -0.252089	  0.000000	  9.154066	  0.000000	  0.000000	  0.000000	  0.000000	  0.295859	  0.000000	 -0.463235	  0.000000	  0.000000	  0.000000
1.816500	-365.579436	2009.526567	-10.747268	  0.947044	  0.000000	 -0.252134	  0.000000	  8.914026	  0.000000	  0.000000	  0.000000	  0.000000	  0.297605	  0.000000	 -0.462663	  0.000000	  0.000000	  0.000000
1.817000	-367.620946	2024.601669	 -9.153588	  0.945600	  0.000000	 -0.252178	  0.000000	  8.670674	  0.000000	  0.000000	  0.000000	  0.000000	  0.299352	  0.000000	 -0.462092	  0.000000	  0.000000	  0.000000
1.817500	-369.541145	2039.533224	 -7.621628	  0.944142	  0.000000	 -0.252222	  0.000000	  8.425257	  0.000000	  0.000000	  0.000000	  0.000000	  0.301099	  0.000000	 -0.461520	  0.000000	  0.000000	  0.000000
1.818000	-371.337412	2054.321065	 -6.154359	  0.942669	  0.000000	 -0.252265	  0.000000	  8.179007	  0.000000	  0.000000	  0.000000	  0.000000	  0.302846	  0.000000	 -0.460948	  0.000000	  0.000000	  0.000000
1.818500	-373.007339	2068.964812	 -4.754587	  0.941180	  0.000000	 -0.252309	  0.000000	  7.933135	  0.000000	  0.000000	  0.000000	  0.000000	  0.304593	  0.000000	 -0.460377	  0.000000	  0.000000	  0.000000
1.819000	-374.548733	2083.463855	 -3.424938	  0.939676	  0.000000	 -0.252353	  0.000000	  7.688825	  0.000000	  0.000000	  0.000000	  0.000000	  0.306339	  0.000000	 -0.459805	  0.000000	  0.000000	  0.000000
1.819500	-375.959596	2097.817364	 -2.167841	  0.938157	  0.000000	 -0.252397	  0.000000	  7.447231	  0.000000	  0.000000	  0.000000	  0.000000	  0.308086	  0.000000	 -0.459234	  0.000000	  0.000000	  0.000000
1.820000	-377.238116	2112.024283	 -0.985505	  0.936621	  0.000000	 -0.252441	  0.000000	  7.209461	  0.000000	  0.000000	  0.000000	  0.000000	  0.309833	  0.000000	 -0.458662	  0.000000	  0.000000	  0.000000
1.820500	-378.382646	2126.083339	  0.120092	  0.935070	  0.000000	 -0.252486	  0.000000	  6.976573	  0.000000	  0.000000	  0.000000	  0.000000	  0.311582	  0.000000	 -0.457917	  0.000000	  0.000000	  0.000000
1.821000	-379.391684	2139.993050	  1.147218	  0.933501	  0.000000	 -0.252531	  0.000000	  6.749562	  0.000000	  0.000000	  0.000000	  0.000000	  0.313332	  0.000000	 -0.457171	  0.000000	  0.000000	  0.000000
1.821500	-380.263859	2153.751733	  2.094388	  0.931917	  0.000000	 -0.252576	  0.000000	  6.529351	  0.000000	  0.000000	  0.000000	  0.000000	  0.315081	  0.000000	 -0.456426	  0.000000	  0.000000	  0.000000
1.822000	-380.997911	2167.357526	  2.960356	  0.930315	  0.000000	 -0.252621	  0.000000	  6.316777	  0.000000	  0.000000	  0.000000	  0.000000	  0.316831	  0.000000	 -0.455680	  0.000000	  0.000000	  0.000000
1.822500	-381.592682	2180.808409	  3.744108	  0.928696	  0.000000	 -0.252666	  0.000000	  6.112588	  0.000000	  0.000000	  0.000000	  0.000000	  0.318581	  0.000000	 -0.454935	  0.000000	  0.000000	  0.000000
1.823000	-382.047112	2194.102241	  4.444854	  0.927060	  0.000000	 -0.252712	  0.000000	  5.917436	  0.000000	  0.000000	  0.000000	  0.000000	  0.320330	  0.000000	 -0.454190	  0.000000	  0.000000	  0.000000
1.823500	-382.360233	2207.236793	  5.062015	  0.925406	  0.000000	 -0.252758	  0.000000	  5.731867	  0.000000	  0.000000	  0.000000	  0.000000	  0.322079	  0.000000	 -0.453444	  0.000000	  0.000000	  0.000000
1.824000	-382.531167	2220.209792	  5.595227	  0.923735	  0.000000	 -0.252804	  0.000000	  5.556328	  0.000000	  0.000000	  0.000000	  0.000000	  0.323829	  0.000000	 -0.452699	  0.000000	  0.000000	  0.000000
1.824500	-382.559122	2233.018942	  6.044339	  0.922045	  0.000000	 -0.252850	  0.000000	  5.391160	  0.000000	  0.000000	  0.000000	  0.000000	  0.325579	  0.000000	 -0.451953	  0.000000	  0.000000	  0.000000
1.825000	-382.443379	2245.661948	  6.409428	  0.920338	  0.000000	 -0.252897	  0.000000	  5.236606	  0.000000	  0.000000	  0.000000	  0.000000	  0.327328	  0.000000	 -0.451208	  0.000000	  0.000000	  0.000000
1.825500	-382.183284	2258.136522	  6.690818	  0.918613	  0.000000	 -0.252943	  0.000000	  5.092816	  0.000000	  0.000000	  0.000000	  0.000000	  0.329132	  0.000000	 -0.450281	  0.000000	  0.000000	  0.000000
1.826000	-381.778234	2270.440387	  6.889103	  0.916870	  0.000000	 -0.252991	  0.000000	  4.959856	  0.000000	  0.000000	  0.000000	  0.000000	  0.330936	  0.000000	 -0.449354	  0.000000	  0.000000	  0.000000
1.826500	-381.227675	2282.571291	  7.005167	  0.915109	  0.000000	 -0.253038	  0.000000	  4.837710	  0.000000	  0.000000	  0.000000	  0.000000	  0.332740	  0.000000	 -0.448426	  0.000000	  0.000000	  0.000000
1.827000	-380.531097	2294.527016	  7.040197	  0.913330	  0.000000	 -0.253086	  0.000000	  4.726292	  0.000000	  0.000000	  0.000000	  0.000000	  0.334544	  0.000000	 -0.447499	  0.000000	  0.000000	  0.000000
1.827500	-379.688036	2306.305396	  6.995693	  0.911534	  0.000000	 -0.253135	  0.000000	  4.625442	  0.000000	  0.000000	  0.000000	  0.000000	  0.336347	  0.000000	 -0.446572	  0.000000	  0.000000	  0.000000
1.828000	-378.698091	2317.904332	  6.873454	  0.909719	  0.000000	 -0.253183	  0.000000	  4.534939	  0.000000	  0.000000	  0.000000	  0.000000	  0.338151	  0.000000	 -0.445645	  0.000000	  0.000000	  0.000000
1.828500	-377.560928	2329.321804	  6.675567	  0.907887	  0.000000	 -0.253232	  0.000000	  4.454500	  0.000000	  0.000000	  0.000000	  0.000000	  0.339955	  0.000000	 -0.444718	  0.000000	  0.000000	  0.000000
1.829000	-376.276297	2340.555875	  6.404377	  0.906038	  0.000000	 -0.253281	  0.000000	  4.383787	  0.000000	  0.000000	  0.000000	  0.000000	  0.341759	  0.000000	 -0.443790	  0.000000	  0.000000	  0.000000
1.829500	-374.844043	2351.604692	  6.062465	  0.904171	  0.000000	 -0.253331	  0.000000	  4.322421	  0.000000	  0.000000	  0.000000	  0.000000	  0.343563	  0.000000	 -0.442863	  0.000000	  0.000000	  0.000000
1.830000	-373.264117	2362.466490	  5.652613	  0.902287	  0.000000	 -0.253380	  0.000000	  4.269986	  0.000000	  0.000000	  0.000000	  0.000000	  0.345367	  0.000000	 -0.441936	  0.000000	  0.000000	  0.000000
1.830500	-371.536577	2373.139587	  5.177779	  0.900386	  0.000000	 -0.253430	  0.000000	  4.226042	  0.000000	  0.000000	  0.000000	  0.000000	  0.347239	  0.000000	 -0.440851	  0.000000	  0.000000	  0.000000
